# xmcd
#
# Track frame offsets:
#	150
#	29044
#	53184
#	71894
#	87913
#	106052
#	118512
#	130292
#	153552
#	168735
#	189399
#	212973
#	230693
#	259573
#	276450
#	298672
#
# Disc length: 4394 seconds
#
# Revision: 0
# Processed by: cddbd v1.5.1PL0 Copyright (c) Steve Scherf et al.
# Submitted via: dBpowerAMP V4.0
#
DISCID=fa112810
DTITLE=Celso Blues Boy - Indiana Blues
DYEAR=1900
DGENRE=Blues
TTITLE0=Onze Horas da Manha
TTITLE1=Mississipi
TTITLE2=Tempos Dificeis
TTITLE3=Cachorro Louco
TTITLE4=Aumenta Que Isso Aí é Rock'n Roll
TTITLE5=Balada para Jack
TTITLE6=Indiana Blues
TTITLE7=Homem das Ruas
TTITLE8=Liberdade
TTITLE9=Sempre Brilhara
TTITLE10=Amor Vazio
TTITLE11=Apenas Outro Blues
TTITLE12=Lagrimas
TTITLE13=Baby Blue
TTITLE14=Nuvens Negras Choram
TTITLE15=Se Você Pudesse Me Ver
EXTD=Ripped By***Hubner***2004
EXTT0=
EXTT1=
EXTT2=
EXTT3=
EXTT4=
EXTT5=
EXTT6=
EXTT7=
EXTT8=
EXTT9=
EXTT10=
EXTT11=
EXTT12=
EXTT13=
EXTT14=
EXTT15=
PLAYORDER=
